<mxfile host="app.diagrams.net" agent="Mozilla/5.0 (X11; Linux x86_64) AppleWebKit/537.36 (KHTML, like Gecko) Chrome/130.0.0.0 Safari/537.36" version="24.8.4">
  <diagram name="Pagina-1" id="5k9zr9PoW_CCmwHdBy74">
    <mxGraphModel dx="1368" dy="751" grid="1" gridSize="10" guides="1" tooltips="1" connect="1" arrows="1" fold="1" page="1" pageScale="1" pageWidth="827" pageHeight="1169" math="0" shadow="0">
      <root>
        <mxCell id="0" />
        <mxCell id="1" parent="0" />
        <mxCell id="OtVLkr9gqvrWez6ySf01-1" value="x1" style="text;html=1;align=center;verticalAlign=middle;whiteSpace=wrap;rounded=0;" vertex="1" parent="1">
          <mxGeometry x="160" y="305" width="60" height="30" as="geometry" />
        </mxCell>
        <mxCell id="OtVLkr9gqvrWez6ySf01-2" value="x4" style="text;html=1;align=center;verticalAlign=middle;whiteSpace=wrap;rounded=0;" vertex="1" parent="1">
          <mxGeometry x="160" y="425" width="60" height="30" as="geometry" />
        </mxCell>
        <mxCell id="OtVLkr9gqvrWez6ySf01-3" value="x2" style="text;html=1;align=center;verticalAlign=middle;whiteSpace=wrap;rounded=0;" vertex="1" parent="1">
          <mxGeometry x="160" y="345" width="60" height="30" as="geometry" />
        </mxCell>
        <mxCell id="OtVLkr9gqvrWez6ySf01-4" value="x3" style="text;html=1;align=center;verticalAlign=middle;whiteSpace=wrap;rounded=0;" vertex="1" parent="1">
          <mxGeometry x="160" y="385" width="60" height="30" as="geometry" />
        </mxCell>
        <mxCell id="OtVLkr9gqvrWez6ySf01-5" value="" style="endArrow=classic;html=1;rounded=0;exitX=1;exitY=0.5;exitDx=0;exitDy=0;" edge="1" parent="1" source="OtVLkr9gqvrWez6ySf01-1">
          <mxGeometry width="50" height="50" relative="1" as="geometry">
            <mxPoint x="390" y="595" as="sourcePoint" />
            <mxPoint x="280" y="320" as="targetPoint" />
          </mxGeometry>
        </mxCell>
        <mxCell id="OtVLkr9gqvrWez6ySf01-6" value="" style="endArrow=classic;html=1;rounded=0;exitX=1;exitY=0.5;exitDx=0;exitDy=0;" edge="1" parent="1">
          <mxGeometry width="50" height="50" relative="1" as="geometry">
            <mxPoint x="220" y="358" as="sourcePoint" />
            <mxPoint x="280" y="358" as="targetPoint" />
          </mxGeometry>
        </mxCell>
        <mxCell id="OtVLkr9gqvrWez6ySf01-7" value="" style="endArrow=classic;html=1;rounded=0;exitX=1;exitY=0.5;exitDx=0;exitDy=0;" edge="1" parent="1">
          <mxGeometry width="50" height="50" relative="1" as="geometry">
            <mxPoint x="219" y="399" as="sourcePoint" />
            <mxPoint x="279" y="399" as="targetPoint" />
          </mxGeometry>
        </mxCell>
        <mxCell id="OtVLkr9gqvrWez6ySf01-8" value="" style="endArrow=classic;html=1;rounded=0;exitX=1;exitY=0.5;exitDx=0;exitDy=0;" edge="1" parent="1">
          <mxGeometry width="50" height="50" relative="1" as="geometry">
            <mxPoint x="219" y="439" as="sourcePoint" />
            <mxPoint x="280" y="439" as="targetPoint" />
          </mxGeometry>
        </mxCell>
        <mxCell id="OtVLkr9gqvrWez6ySf01-9" value="w1" style="text;html=1;align=center;verticalAlign=middle;whiteSpace=wrap;rounded=0;" vertex="1" parent="1">
          <mxGeometry x="221" y="296" width="60" height="30" as="geometry" />
        </mxCell>
        <mxCell id="OtVLkr9gqvrWez6ySf01-10" value="w2" style="text;html=1;align=center;verticalAlign=middle;whiteSpace=wrap;rounded=0;" vertex="1" parent="1">
          <mxGeometry x="220" y="334" width="60" height="30" as="geometry" />
        </mxCell>
        <mxCell id="OtVLkr9gqvrWez6ySf01-11" value="w3" style="text;html=1;align=center;verticalAlign=middle;whiteSpace=wrap;rounded=0;" vertex="1" parent="1">
          <mxGeometry x="219" y="376" width="60" height="30" as="geometry" />
        </mxCell>
        <mxCell id="OtVLkr9gqvrWez6ySf01-12" value="w4" style="text;html=1;align=center;verticalAlign=middle;whiteSpace=wrap;rounded=0;" vertex="1" parent="1">
          <mxGeometry x="219" y="416" width="60" height="30" as="geometry" />
        </mxCell>
        <mxCell id="OtVLkr9gqvrWez6ySf01-13" value="" style="ellipse;whiteSpace=wrap;html=1;" vertex="1" parent="1">
          <mxGeometry x="300" y="221" width="120" height="340" as="geometry" />
        </mxCell>
        <mxCell id="OtVLkr9gqvrWez6ySf01-14" value="N" style="text;html=1;align=center;verticalAlign=middle;whiteSpace=wrap;rounded=0;" vertex="1" parent="1">
          <mxGeometry x="330" y="495" width="60" height="30" as="geometry" />
        </mxCell>
        <mxCell id="OtVLkr9gqvrWez6ySf01-15" value="" style="endArrow=classic;html=1;rounded=0;" edge="1" parent="1" target="OtVLkr9gqvrWez6ySf01-13">
          <mxGeometry width="50" height="50" relative="1" as="geometry">
            <mxPoint x="360" y="150" as="sourcePoint" />
            <mxPoint x="440" y="360" as="targetPoint" />
          </mxGeometry>
        </mxCell>
        <mxCell id="OtVLkr9gqvrWez6ySf01-16" value="bias" style="text;html=1;align=center;verticalAlign=middle;whiteSpace=wrap;rounded=0;" vertex="1" parent="1">
          <mxGeometry x="340" y="120" width="60" height="30" as="geometry" />
        </mxCell>
        <mxCell id="OtVLkr9gqvrWez6ySf01-17" value="" style="endArrow=classic;html=1;rounded=0;exitX=0.975;exitY=0.424;exitDx=0;exitDy=0;exitPerimeter=0;" edge="1" parent="1" source="OtVLkr9gqvrWez6ySf01-13" target="OtVLkr9gqvrWez6ySf01-18">
          <mxGeometry width="50" height="50" relative="1" as="geometry">
            <mxPoint x="390" y="410" as="sourcePoint" />
            <mxPoint x="490" y="365" as="targetPoint" />
          </mxGeometry>
        </mxCell>
        <mxCell id="OtVLkr9gqvrWez6ySf01-18" value="F" style="ellipse;whiteSpace=wrap;html=1;aspect=fixed;" vertex="1" parent="1">
          <mxGeometry x="450" y="325" width="80" height="80" as="geometry" />
        </mxCell>
        <mxCell id="OtVLkr9gqvrWez6ySf01-19" value="" style="endArrow=classic;html=1;rounded=0;exitX=1;exitY=0.5;exitDx=0;exitDy=0;" edge="1" parent="1" source="OtVLkr9gqvrWez6ySf01-18">
          <mxGeometry width="50" height="50" relative="1" as="geometry">
            <mxPoint x="390" y="410" as="sourcePoint" />
            <mxPoint x="620" y="365" as="targetPoint" />
          </mxGeometry>
        </mxCell>
        <mxCell id="OtVLkr9gqvrWez6ySf01-20" value="y" style="text;html=1;align=center;verticalAlign=middle;whiteSpace=wrap;rounded=0;" vertex="1" parent="1">
          <mxGeometry x="620" y="350" width="60" height="30" as="geometry" />
        </mxCell>
      </root>
    </mxGraphModel>
  </diagram>
</mxfile>
